<svg width="18" height="17" viewBox="0 0 18 17" fill="none" xmlns="http://www.w3.org/2000/svg">
<path d="M17.0411 15.5628C15.8513 13.5058 14.0177 12.0308 11.8779 11.3315C12.9363 10.7014 13.7587 9.74129 14.2187 8.59857C14.6786 7.45585 14.7508 6.19373 14.424 5.00604C14.0972 3.81835 13.3896 2.77076 12.4099 2.02414C11.4301 1.27753 10.2323 0.873169 9.00052 0.873169C7.7687 0.873169 6.57093 1.27753 5.59116 2.02414C4.61139 2.77076 3.90379 3.81835 3.57703 5.00604C3.25027 6.19373 3.32241 7.45585 3.78238 8.59857C4.24235 9.74129 5.06471 10.7014 6.12317 11.3315C3.98333 12.03 2.14974 13.505 0.959892 15.5628C0.916258 15.6339 0.887316 15.7131 0.874774 15.7956C0.862231 15.8781 0.866342 15.9623 0.886864 16.0432C0.907386 16.1241 0.943903 16.2001 0.99426 16.2666C1.04462 16.3332 1.1078 16.389 1.18007 16.4307C1.25234 16.4725 1.33224 16.4993 1.41505 16.5097C1.49787 16.5201 1.58192 16.5137 1.66225 16.4911C1.74258 16.4685 1.81756 16.43 1.88277 16.3779C1.94798 16.3258 2.0021 16.2611 2.04192 16.1878C3.5138 13.644 6.11536 12.1253 9.00052 12.1253C11.8857 12.1253 14.4872 13.644 15.9591 16.1878C15.9989 16.2611 16.0531 16.3258 16.1183 16.3779C16.1835 16.43 16.2584 16.4685 16.3388 16.4911C16.4191 16.5137 16.5032 16.5201 16.586 16.5097C16.6688 16.4993 16.7487 16.4725 16.821 16.4307C16.8932 16.389 16.9564 16.3332 17.0068 16.2666C17.0571 16.2001 17.0936 16.1241 17.1142 16.0432C17.1347 15.9623 17.1388 15.8781 17.1263 15.7956C17.1137 15.7131 17.0848 15.6339 17.0411 15.5628ZM4.62552 6.50029C4.62552 5.635 4.88211 4.78914 5.36284 4.06967C5.84357 3.35021 6.52685 2.78945 7.32628 2.45832C8.1257 2.12719 9.00537 2.04055 9.85404 2.20936C10.7027 2.37817 11.4823 2.79485 12.0941 3.4067C12.706 4.01856 13.1226 4.79811 13.2915 5.64677C13.4603 6.49544 13.3736 7.37511 13.0425 8.17453C12.7114 8.97396 12.1506 9.65724 11.4311 10.138C10.7117 10.6187 9.86581 10.8753 9.00052 10.8753C7.84058 10.8741 6.7285 10.4127 5.9083 9.59252C5.08809 8.77231 4.62676 7.66024 4.62552 6.50029Z" fill="#94A3B8"/>
</svg>
