<svg width="18" height="18" viewBox="0 0 18 18" fill="none" xmlns="http://www.w3.org/2000/svg">
<path d="M9 15.9375H9.00007C10.8394 15.9354 12.6027 15.2038 13.9033 13.9033C15.2038 12.6027 15.9354 10.8394 15.9375 9.00007V9C15.9375 7.62789 15.5306 6.2866 14.7683 5.14573C14.006 4.00487 12.9225 3.11567 11.6549 2.59059C10.3872 2.0655 8.99231 1.92812 7.64656 2.1958C6.30082 2.46349 5.06468 3.12422 4.09445 4.09445C3.12422 5.06467 2.46349 6.30082 2.19581 7.64656C1.92812 8.9923 2.06551 10.3872 2.59059 11.6549C3.11567 12.9225 4.00487 14.006 5.14573 14.7683C6.2866 15.5306 7.6279 15.9375 9 15.9375ZM9.625 9.5625H9.5625V9.625V12.125C9.5625 12.2742 9.50324 12.4173 9.39775 12.5227C9.29226 12.6282 9.14919 12.6875 9 12.6875C8.85082 12.6875 8.70775 12.6282 8.60226 12.5227C8.49677 12.4173 8.4375 12.2742 8.4375 12.125V9.625V9.5625H8.375H5.875C5.72582 9.5625 5.58275 9.50324 5.47726 9.39775C5.37177 9.29226 5.3125 9.14918 5.3125 9C5.3125 8.85082 5.37177 8.70774 5.47726 8.60225C5.58275 8.49676 5.72582 8.4375 5.875 8.4375H8.375H8.4375V8.375V5.875C8.4375 5.72582 8.49677 5.58274 8.60226 5.47725C8.70775 5.37176 8.85082 5.3125 9 5.3125C9.14919 5.3125 9.29226 5.37176 9.39775 5.47725C9.50324 5.58274 9.5625 5.72582 9.5625 5.875V8.375V8.4375H9.625H12.125C12.2742 8.4375 12.4173 8.49676 12.5228 8.60225C12.6282 8.70774 12.6875 8.85082 12.6875 9C12.6875 9.14918 12.6282 9.29226 12.5228 9.39775C12.4173 9.50324 12.2742 9.5625 12.125 9.5625H9.625ZM4.52072 2.29628C5.84658 1.41036 7.40537 0.937507 8.99997 0.9375C11.1376 0.939766 13.187 1.78994 14.6985 3.30146C16.2101 4.813 17.0602 6.86243 17.0625 9.00007C17.0625 10.5947 16.5896 12.1534 15.7037 13.4793C14.8178 14.8052 13.5586 15.8385 12.0854 16.4488C10.6122 17.059 8.99106 17.2187 7.42709 16.9076C5.86312 16.5965 4.42652 15.8286 3.29896 14.701C2.17139 13.5735 1.40352 12.1369 1.09242 10.5729C0.781329 9.00894 0.940993 7.38784 1.55122 5.91461C2.16146 4.44139 3.19485 3.1822 4.52072 2.29628Z" fill="white" stroke="white" stroke-width="0.125"/>
</svg>
