<svg width="16" height="16" viewBox="0 0 16 16" fill="none" xmlns="http://www.w3.org/2000/svg">
<path d="M1.75 1.6875H1.6875V1.75V14.25V14.3125H1.75H6.125C6.27419 14.3125 6.41726 14.3718 6.52275 14.4773C6.62824 14.5827 6.6875 14.7258 6.6875 14.875C6.6875 15.0242 6.62824 15.1673 6.52275 15.2727C6.41726 15.3782 6.27419 15.4375 6.125 15.4375H1.75C1.43506 15.4375 1.13301 15.3124 0.910311 15.0897C0.687611 14.867 0.5625 14.5649 0.5625 14.25V1.75C0.5625 1.43506 0.687611 1.13301 0.910311 0.910311C1.13301 0.687611 1.43506 0.5625 1.75 0.5625H6.125C6.27418 0.5625 6.41726 0.621763 6.52275 0.727253C6.62824 0.832742 6.6875 0.975816 6.6875 1.125C6.6875 1.27418 6.62824 1.41726 6.52275 1.52275C6.41726 1.62824 6.27418 1.6875 6.125 1.6875H1.75ZM15.273 7.60201L15.273 7.60203C15.3253 7.65427 15.3668 7.71631 15.3951 7.7846C15.4234 7.85288 15.438 7.92608 15.438 8C15.438 8.07392 15.4234 8.14712 15.3951 8.2154C15.3668 8.28369 15.3253 8.34573 15.273 8.39797L15.273 8.39799L12.148 11.523C12.0424 11.6285 11.8993 11.6878 11.75 11.6878C11.6007 11.6878 11.4576 11.6285 11.352 11.523C11.2465 11.4174 11.1872 11.2743 11.1872 11.125C11.1872 10.9757 11.2464 10.8326 11.352 10.727C11.352 10.727 11.352 10.727 11.352 10.727L13.4106 8.6692L13.5173 8.5625H13.3664H6.125C5.97582 8.5625 5.83274 8.50324 5.72725 8.39775C5.62176 8.29226 5.5625 8.14918 5.5625 8C5.5625 7.85082 5.62176 7.70774 5.72725 7.60225C5.83274 7.49676 5.97582 7.4375 6.125 7.4375H13.3664H13.5173L13.4106 7.3308L11.352 5.27299C11.2465 5.16744 11.1872 5.02428 11.1872 4.875C11.1872 4.72572 11.2465 4.58256 11.352 4.47701C11.4576 4.37145 11.6007 4.31215 11.75 4.31215C11.8993 4.31215 12.0424 4.37145 12.148 4.47701L15.273 7.60201Z" fill="#475569" stroke="#475569" stroke-width="0.125"/>
</svg>
