<svg width="20" height="14" viewBox="0 0 20 14" fill="none" xmlns="http://www.w3.org/2000/svg">
<path d="M12.4995 0.125C11.2227 0.12598 9.97129 0.482138 8.88533 1.15364C7.79936 1.82514 6.92161 2.78551 6.35024 3.92734C5.67053 3.82821 4.97767 3.8702 4.3149 4.05069C3.65212 4.23117 3.03365 4.54629 2.49804 4.97638C1.96244 5.40647 1.52121 5.94231 1.20186 6.55047C0.882513 7.15864 0.691902 7.82608 0.641918 8.51117C0.591933 9.19626 0.683648 9.8843 0.911341 10.5324C1.13903 11.1804 1.49782 11.7747 1.96532 12.2779C2.43283 12.7812 2.99901 13.1828 3.62857 13.4575C4.25813 13.7323 4.93755 13.8744 5.62446 13.875H12.4995C14.3228 13.875 16.0715 13.1507 17.3608 11.8614C18.6501 10.572 19.3745 8.82336 19.3745 7C19.3745 5.17664 18.6501 3.42795 17.3608 2.13864C16.0715 0.849328 14.3228 0.125 12.4995 0.125ZM12.4995 12.625H5.62446C4.6299 12.625 3.67607 12.2299 2.97281 11.5267C2.26955 10.8234 1.87446 9.86956 1.87446 8.875C1.87446 7.88044 2.26955 6.92661 2.97281 6.22335C3.67607 5.52009 4.6299 5.125 5.62446 5.125C5.7104 5.125 5.79634 5.125 5.88149 5.13359C5.71057 5.74099 5.62409 6.36902 5.62446 7C5.62446 7.16576 5.69031 7.32473 5.80752 7.44194C5.92473 7.55915 6.0837 7.625 6.24946 7.625C6.41522 7.625 6.57419 7.55915 6.6914 7.44194C6.80861 7.32473 6.87446 7.16576 6.87446 7C6.87446 5.88748 7.20436 4.79994 7.82245 3.87492C8.44053 2.94989 9.31903 2.22892 10.3469 1.80318C11.3747 1.37743 12.5057 1.26604 13.5968 1.48308C14.688 1.70012 15.6903 2.23585 16.4769 3.02252C17.2636 3.80919 17.7993 4.81147 18.0164 5.90262C18.2334 6.99376 18.122 8.12476 17.6963 9.15259C17.2705 10.1804 16.5496 11.0589 15.6245 11.677C14.6995 12.2951 13.612 12.625 12.4995 12.625Z" fill="#94A3B8"/>
</svg>
