<svg width="18" height="20" viewBox="0 0 18 20" fill="none" xmlns="http://www.w3.org/2000/svg">
<path d="M12.7494 19C12.7494 19.1989 12.6704 19.3897 12.5298 19.5303C12.3891 19.671 12.1984 19.75 11.9994 19.75H5.99944C5.80053 19.75 5.60976 19.671 5.46911 19.5303C5.32846 19.3897 5.24944 19.1989 5.24944 19C5.24944 18.8011 5.32846 18.6103 5.46911 18.4697C5.60976 18.329 5.80053 18.25 5.99944 18.25H11.9994C12.1984 18.25 12.3891 18.329 12.5298 18.4697C12.6704 18.6103 12.7494 18.8011 12.7494 19ZM17.7979 16C17.6678 16.2292 17.4788 16.4196 17.2506 16.5514C17.0223 16.6833 16.763 16.7518 16.4994 16.75H1.49944C1.23576 16.7496 0.976825 16.6798 0.748744 16.5475C0.520663 16.4151 0.331493 16.225 0.2003 15.9963C0.0691071 15.7676 0.000527962 15.5083 0.00147451 15.2446C0.00242106 14.9809 0.07286 14.7222 0.205692 14.4944C0.726004 13.5981 1.49944 11.0631 1.49944 7.75C1.49944 5.76088 2.28962 3.85322 3.69614 2.4467C5.10266 1.04018 7.01032 0.25 8.99944 0.25C10.9886 0.25 12.8962 1.04018 14.3027 2.4467C15.7093 3.85322 16.4994 5.76088 16.4994 7.75C16.4994 11.0622 17.2738 13.5981 17.7941 14.4944C17.9283 14.7225 17.9993 14.9822 17.9998 15.2468C18.0002 15.5114 17.9302 15.7714 17.7969 16H17.7979ZM16.4994 15.25C15.7748 14.0059 14.9994 11.1297 14.9994 7.75C14.9994 6.1587 14.3673 4.63258 13.2421 3.50736C12.1169 2.38214 10.5907 1.75 8.99944 1.75C7.40814 1.75 5.88202 2.38214 4.7568 3.50736C3.63158 4.63258 2.99944 6.1587 2.99944 7.75C2.99944 11.1306 2.22319 14.0069 1.49944 15.25H16.4994Z" fill="#667185"/>
</svg>
