<svg width="20" height="12" viewBox="0 0 20 12" fill="none" xmlns="http://www.w3.org/2000/svg">
<path d="M10 2.875C9.38193 2.875 8.77775 3.05828 8.26384 3.40166C7.74994 3.74504 7.3494 4.2331 7.11288 4.80411C6.87635 5.37513 6.81447 6.00347 6.93505 6.60966C7.05562 7.21585 7.35325 7.77267 7.79029 8.20971C8.22733 8.64675 8.78415 8.94438 9.39034 9.06495C9.99653 9.18553 10.6249 9.12365 11.1959 8.88712C11.7669 8.6506 12.255 8.25006 12.5983 7.73616C12.9417 7.22225 13.125 6.61807 13.125 6C13.125 5.1712 12.7958 4.37634 12.2097 3.79029C11.6237 3.20424 10.8288 2.875 10 2.875ZM10 7.875C9.62916 7.875 9.26665 7.76503 8.95831 7.55901C8.64996 7.35298 8.40964 7.06014 8.26773 6.71753C8.12581 6.37492 8.08868 5.99792 8.16103 5.63421C8.23337 5.27049 8.41195 4.9364 8.67417 4.67417C8.9364 4.41195 9.27049 4.23337 9.63421 4.16103C9.99792 4.08868 10.3749 4.12581 10.7175 4.26773C11.0601 4.40964 11.353 4.64996 11.559 4.95831C11.765 5.26665 11.875 5.62916 11.875 6C11.875 6.49728 11.6775 6.97419 11.3258 7.32583C10.9742 7.67746 10.4973 7.875 10 7.875ZM18.75 0.375H1.25C1.08424 0.375 0.925268 0.440848 0.808058 0.558058C0.690848 0.675269 0.625 0.83424 0.625 1V11C0.625 11.1658 0.690848 11.3247 0.808058 11.4419C0.925268 11.5592 1.08424 11.625 1.25 11.625H18.75C18.9158 11.625 19.0747 11.5592 19.1919 11.4419C19.3092 11.3247 19.375 11.1658 19.375 11V1C19.375 0.83424 19.3092 0.675269 19.1919 0.558058C19.0747 0.440848 18.9158 0.375 18.75 0.375ZM15.1289 10.375H4.87109C4.66125 9.66531 4.27719 9.01941 3.75389 8.49611C3.23059 7.97281 2.58468 7.58875 1.875 7.37891V4.62109C2.58468 4.41125 3.23059 4.02719 3.75389 3.50389C4.27719 2.98059 4.66125 2.33468 4.87109 1.625H15.1289C15.3387 2.33468 15.7228 2.98059 16.2461 3.50389C16.7694 4.02719 17.4153 4.41125 18.125 4.62109V7.37891C17.4153 7.58875 16.7694 7.97281 16.2461 8.49611C15.7228 9.01941 15.3387 9.66531 15.1289 10.375ZM18.125 3.29453C17.3753 2.97218 16.7778 2.37466 16.4555 1.625H18.125V3.29453ZM3.54453 1.625C3.22218 2.37466 2.62466 2.97218 1.875 3.29453V1.625H3.54453ZM1.875 8.70547C2.62466 9.02782 3.22218 9.62534 3.54453 10.375H1.875V8.70547ZM16.4555 10.375C16.7778 9.62534 17.3753 9.02782 18.125 8.70547V10.375H16.4555Z" fill="#94A3B8"/>
</svg>
