<svg width="20" height="20" viewBox="0 0 20 20" fill="none" xmlns="http://www.w3.org/2000/svg">
<path d="M10.5892 2.74408C10.4329 2.5878 10.221 2.5 9.99996 2.5C9.77895 2.5 9.56698 2.5878 9.4107 2.74408L4.4107 7.74408C4.08527 8.06952 4.08527 8.59715 4.4107 8.92259C4.73614 9.24803 5.26378 9.24803 5.58921 8.92259L9.99996 4.51184L14.4107 8.92259C14.7361 9.24803 15.2638 9.24803 15.5892 8.92259C15.9147 8.59715 15.9147 8.06952 15.5892 7.74408L10.5892 2.74408Z" fill="#94A3B8"/>
<path d="M10.5892 18.0893C10.4329 18.2455 10.221 18.3333 9.99996 18.3333C9.77895 18.3333 9.56698 18.2455 9.4107 18.0893L4.4107 13.0893C4.08527 12.7638 4.08527 12.2362 4.4107 11.9107C4.73614 11.5853 5.26378 11.5853 5.58921 11.9107L9.99996 16.3215L14.4107 11.9107C14.7361 11.5853 15.2638 11.5853 15.5892 11.9107C15.9147 12.2362 15.9147 12.7638 15.5892 13.0893L10.5892 18.0893Z" fill="#94A3B8"/>
</svg>
