<svg width="64" height="64" viewBox="0 0 64 64" fill="none" xmlns="http://www.w3.org/2000/svg">
<rect x="0.5" y="0.5" width="63" height="63" rx="31.5" fill="#F0F6FE"/>
<rect x="0.5" y="0.5" width="63" height="63" rx="31.5" stroke="#D2E4FE"/>
<path d="M45.2978 42.2498C43.584 39.242 40.9079 36.8983 37.7003 35.5961C39.2954 34.3998 40.4737 32.7319 41.0682 30.8287C41.6627 28.9255 41.6433 26.8835 41.0128 24.9919C40.3823 23.1004 39.1726 21.4551 37.555 20.2893C35.9375 19.1234 33.9942 18.4961 32.0003 18.4961C30.0064 18.4961 28.0631 19.1234 26.4456 20.2893C24.828 21.4551 23.6183 23.1004 22.9878 24.9919C22.3573 26.8835 22.3379 28.9255 22.9324 30.8287C23.5269 32.7319 24.7052 34.3998 26.3003 35.5961C23.0927 36.8983 20.4166 39.242 18.7028 42.2498C18.5966 42.4206 18.5258 42.611 18.4947 42.8096C18.4635 43.0083 18.4726 43.2112 18.5215 43.4062C18.5703 43.6013 18.6578 43.7845 18.7789 43.9451C18.8999 44.1057 19.0521 44.2402 19.2262 44.3408C19.4003 44.4414 19.5928 44.506 19.7924 44.5307C19.992 44.5553 20.1944 44.5397 20.3878 44.4845C20.5812 44.4294 20.7615 44.3359 20.9181 44.2097C21.0746 44.0835 21.2042 43.9271 21.299 43.7498C23.564 39.8348 27.564 37.4998 32.0003 37.4998C36.4366 37.4998 40.4366 39.8361 42.7015 43.7498C42.9072 44.0805 43.2334 44.3182 43.6111 44.4128C43.9888 44.5073 44.3885 44.4513 44.7257 44.2565C45.0629 44.0617 45.3111 43.7434 45.4178 43.3689C45.5246 42.9945 45.4816 42.5932 45.2978 42.2498ZM25.5003 27.9998C25.5003 26.7143 25.8815 25.4576 26.5957 24.3886C27.31 23.3197 28.3251 22.4866 29.5129 21.9946C30.7006 21.5027 32.0075 21.3739 33.2684 21.6247C34.5293 21.8755 35.6875 22.4946 36.5965 23.4036C37.5055 24.3127 38.1246 25.4709 38.3754 26.7318C38.6262 27.9926 38.4975 29.2996 38.0055 30.4873C37.5135 31.675 36.6804 32.6902 35.6115 33.4044C34.5426 34.1186 33.2859 34.4998 32.0003 34.4998C30.277 34.4979 28.6249 33.8124 27.4063 32.5938C26.1877 31.3753 25.5023 29.7231 25.5003 27.9998Z" fill="#0D6EFD"/>
</svg>
