<svg width="18" height="9" viewBox="0 0 18 9" fill="none" xmlns="http://www.w3.org/2000/svg">
<path d="M16.8125 6.67169C16.7411 6.71239 16.6624 6.73862 16.5808 6.74887C16.4993 6.75912 16.4165 6.7532 16.3373 6.73143C16.258 6.70966 16.1839 6.67247 16.119 6.62201C16.0542 6.57154 15.9999 6.50878 15.9593 6.43731L14.475 3.84356C13.612 4.42706 12.66 4.86663 11.6562 5.14512L12.1148 7.89668C12.1283 7.97769 12.1258 8.06056 12.1073 8.14058C12.0887 8.22059 12.0546 8.29616 12.0069 8.36299C11.9592 8.42981 11.8987 8.48657 11.829 8.53002C11.7593 8.57347 11.6818 8.60276 11.6007 8.61622C11.5674 8.62167 11.5337 8.62454 11.5 8.62481C11.3521 8.62459 11.2091 8.57195 11.0964 8.47626C10.9837 8.38057 10.9085 8.24801 10.8843 8.10215L10.4336 5.40059C9.48293 5.53288 8.51856 5.53288 7.56793 5.40059L7.11715 8.10215C7.09289 8.24828 7.01753 8.38104 6.90449 8.47677C6.79145 8.57249 6.64809 8.62496 6.49996 8.62481C6.46541 8.62467 6.43093 8.62179 6.39684 8.61622C6.31582 8.60276 6.23825 8.57347 6.16856 8.53002C6.09887 8.48657 6.03843 8.42981 5.99068 8.36299C5.94294 8.29616 5.90884 8.22059 5.89032 8.14058C5.87181 8.06056 5.86924 7.97769 5.88277 7.89668L6.34371 5.14512C5.3403 4.86575 4.38887 4.42539 3.52652 3.84122L2.04684 6.43731C1.96396 6.58173 1.8271 6.68731 1.66637 6.73082C1.50565 6.77434 1.33422 6.75222 1.1898 6.66934C1.04539 6.58646 0.939806 6.44961 0.896291 6.28888C0.852777 6.12816 0.874893 5.95673 0.957773 5.81231L2.52027 3.07794C1.97144 2.60378 1.46677 2.0808 1.01246 1.51544C0.955803 1.45218 0.912632 1.37803 0.885582 1.29754C0.858532 1.21704 0.84817 1.13187 0.85513 1.04723C0.862089 0.962598 0.886224 0.880268 0.926061 0.80527C0.965898 0.730271 1.0206 0.664178 1.08683 0.611024C1.15306 0.55787 1.22943 0.51877 1.31127 0.496112C1.39311 0.473454 1.47872 0.467713 1.56285 0.479238C1.64699 0.490764 1.72789 0.519315 1.80063 0.563149C1.87336 0.606982 1.9364 0.665178 1.9859 0.734185C3.28277 2.33887 5.55152 4.24981 8.99996 4.24981C12.4484 4.24981 14.7171 2.33653 16.014 0.734185C16.063 0.663766 16.1259 0.604168 16.1988 0.559101C16.2718 0.514033 16.3532 0.48446 16.4381 0.47222C16.5229 0.45998 16.6094 0.465336 16.6921 0.487955C16.7749 0.510574 16.852 0.549971 16.9189 0.603696C16.9857 0.657421 17.0408 0.724324 17.0806 0.800243C17.1205 0.876162 17.1443 0.959472 17.1506 1.04499C17.1569 1.13051 17.1455 1.21641 17.1172 1.29734C17.0888 1.37828 17.0442 1.45251 16.9859 1.51544C16.5316 2.0808 16.0269 2.60378 15.4781 3.07794L17.0406 5.81231C17.0825 5.88359 17.1099 5.96248 17.1211 6.04442C17.1324 6.12636 17.1272 6.20971 17.106 6.28964C17.0848 6.36958 17.0479 6.44451 16.9975 6.51009C16.9471 6.57567 16.8842 6.63059 16.8125 6.67169Z" fill="#343330"/>
</svg>
