<svg width="20" height="20" viewBox="0 0 20 20" fill="none" xmlns="http://www.w3.org/2000/svg">
<path d="M3.33337 5.00002C3.33337 4.53978 3.70647 4.16669 4.16671 4.16669H15.8334C16.2936 4.16669 16.6667 4.53978 16.6667 5.00002C16.6667 5.46026 16.2936 5.83335 15.8334 5.83335H4.16671C3.70647 5.83335 3.33337 5.46026 3.33337 5.00002Z" fill="#334155"/>
<path d="M5.00004 10C5.00004 9.53978 5.37314 9.16669 5.83337 9.16669H14.1667C14.6269 9.16669 15 9.53978 15 10C15 10.4603 14.6269 10.8334 14.1667 10.8334H5.83337C5.37314 10.8334 5.00004 10.4603 5.00004 10Z" fill="#334155"/>
<path d="M7.50004 14.1667C7.0398 14.1667 6.66671 14.5398 6.66671 15C6.66671 15.4603 7.0398 15.8334 7.50004 15.8334H12.5C12.9603 15.8334 13.3334 15.4603 13.3334 15C13.3334 14.5398 12.9603 14.1667 12.5 14.1667H7.50004Z" fill="#334155"/>
</svg>
