<svg width="12" height="17" viewBox="0 0 12 17" fill="none" xmlns="http://www.w3.org/2000/svg">
<path d="M6.58921 0.744078C6.43293 0.587797 6.22097 0.5 5.99996 0.5C5.77895 0.5 5.56698 0.587797 5.4107 0.744078L0.410704 5.74408C0.0852667 6.06952 0.0852667 6.59715 0.410704 6.92259C0.736141 7.24803 1.26378 7.24803 1.58921 6.92259L5.99996 2.51184L10.4107 6.92259C10.7361 7.24803 11.2638 7.24803 11.5892 6.92259C11.9147 6.59715 11.9147 6.06952 11.5892 5.74408L6.58921 0.744078Z" fill="#94A3B8"/>
<path d="M6.58921 16.0893C6.43293 16.2455 6.22097 16.3333 5.99996 16.3333C5.77895 16.3333 5.56698 16.2455 5.4107 16.0893L0.410704 11.0893C0.0852667 10.7638 0.0852667 10.2362 0.410704 9.91074C0.736141 9.58531 1.26378 9.58531 1.58921 9.91074L5.99996 14.3215L10.4107 9.91074C10.7361 9.58531 11.2638 9.58531 11.5892 9.91074C11.9147 10.2362 11.9147 10.7638 11.5892 11.0893L6.58921 16.0893Z" fill="#94A3B8"/>
</svg>
