<svg width="20" height="20" viewBox="0 0 20 20" fill="none" xmlns="http://www.w3.org/2000/svg">
<path d="M9.77935 12.2607C10.5646 11.6007 11.1278 10.7152 11.3926 9.72425C11.6575 8.73329 11.6111 7.68486 11.2599 6.72113C10.9087 5.75741 10.2695 4.92502 9.42918 4.33686C8.58882 3.7487 7.5879 3.43323 6.56217 3.43323C5.53643 3.43323 4.53551 3.7487 3.69515 4.33686C2.85479 4.92502 2.21566 5.75741 1.86443 6.72113C1.5132 7.68486 1.46686 8.73329 1.73171 9.72425C1.99656 10.7152 2.55978 11.6007 3.34498 12.2607C2.11887 12.8151 1.05632 13.6761 0.25982 14.7607C0.112708 14.9612 0.0512562 15.2119 0.0889832 15.4577C0.12671 15.7034 0.260526 15.9242 0.460992 16.0713C0.661459 16.2184 0.912155 16.2798 1.15793 16.2421C1.40371 16.2044 1.62443 16.0706 1.77154 15.8701C2.3229 15.1171 3.04401 14.5046 3.87636 14.0825C4.70872 13.6603 5.62887 13.4403 6.56217 13.4403C7.49546 13.4403 8.41561 13.6603 9.24797 14.0825C10.0803 14.5046 10.8014 15.1171 11.3528 15.8701C11.4999 16.0707 11.7207 16.2046 11.9665 16.2424C12.2124 16.2802 12.4632 16.2188 12.6637 16.0717C12.8643 15.9245 12.9982 15.7038 13.036 15.4579C13.0738 15.2121 13.0124 14.9613 12.8653 14.7607C12.0683 13.6763 11.0056 12.8153 9.77935 12.2607ZM3.43716 8.43728C3.43716 7.81922 3.62044 7.21503 3.96382 6.70113C4.3072 6.18722 4.79526 5.78668 5.36628 5.55016C5.9373 5.31364 6.56563 5.25175 7.17182 5.37233C7.77801 5.49291 8.33484 5.79054 8.77187 6.22757C9.20891 6.66461 9.50654 7.22144 9.62712 7.82763C9.7477 8.43382 9.68581 9.06215 9.44929 9.63317C9.21277 10.2042 8.81223 10.6922 8.29832 11.0356C7.78442 11.379 7.18023 11.5623 6.56217 11.5623C5.73336 11.5623 4.93851 11.233 4.35246 10.647C3.7664 10.0609 3.43716 9.26608 3.43716 8.43728ZM19.5387 16.0678C19.4395 16.1407 19.3268 16.1933 19.2072 16.2227C19.0876 16.2521 18.9634 16.2576 18.8417 16.239C18.7199 16.2203 18.603 16.1779 18.4977 16.1141C18.3924 16.0502 18.3007 15.9663 18.2278 15.867C17.6751 15.1154 16.9537 14.504 16.1216 14.082C15.2896 13.66 14.3701 13.4392 13.4372 13.4373C13.1885 13.4373 12.9501 13.3385 12.7743 13.1627C12.5984 12.9869 12.4997 12.7484 12.4997 12.4998C12.4997 12.2511 12.5984 12.0127 12.7743 11.8369C12.9501 11.6611 13.1885 11.5623 13.4372 11.5623C13.8973 11.5617 14.3516 11.4596 14.7677 11.2632C15.1838 11.0667 15.5514 10.7808 15.8442 10.4259C16.1369 10.0709 16.3478 9.65568 16.4615 9.20984C16.5753 8.76399 16.5891 8.29853 16.5022 7.84669C16.4152 7.39486 16.2296 6.9678 15.9585 6.59603C15.6873 6.22425 15.3375 5.91693 14.9339 5.69602C14.5302 5.4751 14.0828 5.34605 13.6235 5.31807C13.1643 5.29009 12.7045 5.36388 12.277 5.53416C12.1625 5.58104 12.0399 5.6048 11.9161 5.60405C11.7924 5.60331 11.67 5.57808 11.5561 5.52982C11.4422 5.48156 11.3389 5.41122 11.2523 5.32287C11.1657 5.23451 11.0974 5.12988 11.0514 5.01502C11.0054 4.90015 10.9826 4.77732 10.9844 4.6536C10.9861 4.52988 11.0123 4.40772 11.0614 4.29417C11.1106 4.18062 11.1817 4.07792 11.2707 3.992C11.3598 3.90607 11.4649 3.83862 11.5801 3.79353C12.6835 3.35177 13.9082 3.3175 15.0345 3.69685C16.1609 4.07621 17.1152 4.84439 17.7265 5.86365C18.3378 6.88292 18.5661 8.0866 18.3703 9.25889C18.1745 10.4312 17.5676 11.4954 16.6583 12.2607C17.8844 12.8151 18.9469 13.6761 19.7434 14.7607C19.8891 14.9614 19.9493 15.2115 19.9109 15.4565C19.8726 15.7015 19.7387 15.9212 19.5387 16.0678Z" fill="#0D6EFD"/>
</svg>
