<svg width="27" height="27" viewBox="0 0 27 27" fill="none" xmlns="http://www.w3.org/2000/svg">
<path d="M21.9892 20.1983C22.2269 20.4361 22.3605 20.7585 22.3605 21.0948C22.3605 21.431 22.2269 21.7535 21.9892 21.9913C21.7514 22.229 21.4289 22.3626 21.0927 22.3626C20.7564 22.3626 20.434 22.229 20.1962 21.9913L13.5 15.2929L6.80168 21.9892C6.56392 22.2269 6.24144 22.3605 5.9052 22.3605C5.56895 22.3605 5.24647 22.2269 5.00871 21.9892C4.77095 21.7514 4.63737 21.4289 4.63737 21.0927C4.63737 20.7564 4.77095 20.4339 5.00871 20.1962L11.707 13.5L5.01082 6.80165C4.77306 6.56389 4.63948 6.24141 4.63948 5.90517C4.63948 5.56892 4.77306 5.24644 5.01082 5.00868C5.24858 4.77092 5.57106 4.63735 5.9073 4.63735C6.24355 4.63735 6.56603 4.77092 6.80379 5.00868L13.5 11.707L20.1983 5.00763C20.4361 4.76986 20.7586 4.63629 21.0948 4.63629C21.431 4.63629 21.7535 4.76986 21.9913 5.00763C22.229 5.24539 22.3626 5.56786 22.3626 5.90411C22.3626 6.24036 22.229 6.56283 21.9913 6.8006L15.293 13.5L21.9892 20.1983Z" fill="#676E7E"/>
</svg>
